<svg width="32" height="32" viewBox="0 0 32 32" fill="none" xmlns="http://www.w3.org/2000/svg">
<path d="M31.8043 9.4332C31.7848 8.09192 31.5367 6.76128 31.0619 5.50683C30.2309 3.3647 28.5388 1.67083 26.3966 0.841617C25.1581 0.375627 23.8488 0.1258 22.5234 0.0974505C20.8189 0.021262 20.2785 0 15.9517 0C11.6249 0 11.0704 1.1881e-07 9.37827 0.0974505C8.05471 0.1258 6.74534 0.375627 5.50683 0.841617C3.36469 1.67083 1.67083 3.3647 0.841616 5.50683C0.375627 6.74534 0.124028 8.05472 0.0992222 9.37827C0.0230337 11.0845 0 11.6249 0 15.9517C0 20.2785 -1.32011e-08 20.8313 0.0992222 22.5252C0.1258 23.8505 0.375627 25.1581 0.841616 26.4002C1.6726 28.5406 3.36469 30.2344 5.5086 31.0636C6.74179 31.5456 8.05117 31.8184 9.38004 31.8609C11.0863 31.9371 11.6267 31.9602 15.9535 31.9602C20.2803 31.9602 20.8349 31.9602 22.527 31.8609C23.8505 31.8344 25.1599 31.5845 26.4002 31.1186C28.5423 30.2876 30.2344 28.5937 31.0654 26.4533C31.5314 25.2131 31.7812 23.9055 31.8078 22.5784C31.884 20.8739 31.907 20.3335 31.907 16.0049C31.9035 11.6781 31.9035 11.1288 31.8043 9.4332ZM15.9411 24.134C11.4159 24.134 7.74996 20.4681 7.74996 15.9429C7.74996 11.4176 11.4159 7.75173 15.9411 7.75173C20.4628 7.75173 24.1323 11.4176 24.1323 15.9429C24.1323 20.4681 20.4628 24.134 15.9411 24.134ZM24.4583 9.35878C23.4005 9.35878 22.5482 8.50476 22.5482 7.44875C22.5482 6.39274 23.4005 5.53872 24.4583 5.53872C25.5125 5.53872 26.3665 6.39274 26.3665 7.44875C26.3665 8.50476 25.5125 9.35878 24.4583 9.35878Z" fill="#2D433E"/>
<path d="M15.9407 21.2636C18.8793 21.2636 21.2614 18.8814 21.2614 15.9429C21.2614 13.0043 18.8793 10.6221 15.9407 10.6221C13.0021 10.6221 10.6199 13.0043 10.6199 15.9429C10.6199 18.8814 13.0021 21.2636 15.9407 21.2636Z" fill="#2D433E"/>
</svg>
